<?xml version="1.0" encoding="UTF-8" standalone="no"?>
<svg xmlns="http://www.w3.org/2000/svg" xml:space="preserve" id="svg28" width="62.000179mm" height="36.103458mm" fill-rule="evenodd" clip-rule="evenodd" image-rendering="optimizeQuality" shape-rendering="geometricPrecision" text-rendering="geometricPrecision" version="1.1" viewBox="0 0 62.000179 36.103458">
  <defs id="defs4">
    <style id="style2" type="text/css">
      .fil2{fill:#e18742}.fil3{fill:#eee817}
    </style>
  </defs>
  <g id="Layer_x0020_1" transform="translate(-3.021658 -244.93694)">
    <path id="path9" fill="#1f1a17" d="M64.9661 254.418c0-1.0184-1.0478-1.6992-1.8359-2.1387-.3402-.1898-.7563-.3095-1.1244-.4483-.4508-.1703-.9576-.25-1.4274-.3547-.4916-.1096-1.0504-.11-1.5532-.1248-.4939-.015-.9654-.001-1.453.0873-.4634.0845-.8992.2215-1.2932.4849-.4381.2929-.53.7295-.7907 1.1531-.0759-.1937-.3645-.2953-.4966-.4459-.2909-.3325-.7464-.5445-1.1348-.7388-.7316-.3657-1.5217-.4931-2.3354-.5365-.2102-.011-.4213-.0221-.6318-.0221-.0453 0 .0175-.3076.023-.3351.0791-.4311.0611-.8912-.1073-1.2989-.1613-.3897-.4417-.7362-.8069-.9505-.4607-.2701-.8751-.2545-1.395-.2545.3751-.9288.5199-2.2011-.2954-2.934-.352-.3164-.7599-.5911-1.2466-.62-.5802-.0343-1.0019.1842-1.495.4516-1.0666.5782-2.1441 1.2397-3.1258 1.9516-.4538.3289-.9255.6298-1.3693.9718-.4168.3212-.91.5793-1.2693.9675-.1593.1718-.2879.371-.3693.5912-.0352.096-.0664.43-.2361.3556-.4835-.2121-1.0518-.2892-1.5749-.3164-1.0508-.0546-2.1913.199-3.1708.5726-.9801.3741-1.9283 1.0418-2.6353 1.8135-.2262.247-.386.5372-.6049.7873-.1211.1378-.169.0373-.2433-.01-.1157-.0733-.2405-.1424-.3577-.2012-.1049-.0525-.2972-.1786-.4136-.1786-.1879 0-.3708-.1789-.5825-.1789-.3139 0-.5881-.0893-.9585-.0893-.7047 0-1.2807.0523-1.8007.2457-.1429.0532-.3052.1465-.4469.2011-.1103.0422-.3025.1788-.4026.1788-.0379 0-.1371.0659-.1787.0895-.2225.1255-.4976.2951-.7155.4695-.8822.7063-1.6563 1.5727-2.2115 2.5523-.2429.4276-.4159.8478-.3915 1.3504.0112.2261.1115.4645.0693.6906-.0375.2018-.2604.1043-.3943.0784-.1475-.0286-.177.005-.1563-.1564.0287-.2261.1057-.4442.1341-.6707.0791-.6347.2328-1.2636.4188-1.8749.2857-.9399.7969-2.1753.4026-3.1548-.321-.7962-1.2407-1.4285-2.1112-1.2856-.7829.1284-1.2845.6796-1.9256 1.0798-.4309.269-.7503.6953-1.177.9653-.1109.0702-.3429-.4433-.3955-.5243-.1563-.2418-.3431-.4264-.5924-.5708-.4454-.2581-.8996-.3494-1.4004-.214-.2173.0588-.4415.0483-.6553.1191-.2513.0832-.4768.2242-.7231.3192-.4729.1818-.9126.392-1.3538.6415-.1563.0882-.332.0922-.4794.1947-.1916.133-.3561.2006-.555.3-.4093.2048-.8041.5267-1.1884.7808-.5211.3446-1.0062.7265-1.4919 1.1191-.9091.7344-1.7042 1.5379-2.4456 2.4396-.7599.9243-1.4568 1.8639-2.0442 2.9096-.5622 1.0013-1.0221 1.9598-.7855 3.1389.0456.2272.1156.439.2405.6354.08.1258.2604.2394.2141.4096-.0506.1848-.164.3431-.211.5322-.0701.2788-.1333.5536-.2198.8285-.3386 1.0715-.5081 2.252-.5883 3.3711-.1593 2.2297-.1218 4.5618.8467 6.624.4937 1.0514 1.2293 1.8221 2.0371 2.63.2044.2045.4549.3526.6812.5329.1351.1074.288.1497.4197.2465.1669.1236.3114.2536.5129.3242.3694.1287.7263.3182 1.0867.4797.4337.1944.9241.2421 1.3776.3744.4782.1392 1.0355.2065 1.5327.2105.2875.002.5748-.0158.8622-.0211.3099-.005.6064-.1129.9134-.1129.2566 0 .4845-.1566.74-.1566.2283 0 .409-.179.6357-.179.1892 0 .412-.1195.5749-.2082.1693-.0923.3443-.1379.5113-.2213.9373-.4699 1.7086-1.0886 2.495-1.7686.8462-.732 1.4927-1.7033 2.2019-2.5627.3468-.4206.7181-.8308 1.0421-1.2688.1632-.2197.2848-.4463.3829-.7011.1119-.2913.2727-.2529.5261-.3547.5041-.2022.845-.5828 1.2427-.9362.444-.394.9066-.7788 1.3325-1.1909.5974-.5786 1.2732-1.0794 1.8572-1.682.1606-.1655.2958-.3481.4467-.5201.1516-.1721.4966-.0973.6981-.0973h.9228c.3138 0 .6378.0509.9318-.0738.1916-.0811.4493-.2164.6599-.2164.1261 0 .3239-.1672.4469-.2174.4416-.1796.9137-.5815 1.2557-.9053.2566-.2437.4187-.6184.7024-.8252.138-.1008.2126.0515.3044.1405.1034.1009.3324.199.4646.265.47.2351.9074.5159 1.4209.6485.5129.1334 1.0705.1041 1.5975.1107 1.0371.0131 2.0392-.3175 2.9535-.8022.3996-.2122.7191-.4788 1.0553-.7723.401-.3504.7067.2035 1.0469.4199.8462.5392 2.0241 1.0006 3.0467.7409.462-.1172.8672-.2069 1.305-.4069.1756-.0802.3343-.0821.4964-.2052.1774-.135.3494-.3176.5862-.2086.4364.2013.8216.4161 1.3004.5156.5509.1143 1.1108.2063 1.675.198.5126-.007 1.033-.0624 1.5272-.2016.2664-.0755.5265-.1698.7878-.26.2361-.0818.4427.1096.6009.2577.1593.1481.3287.284.5078.4068.1359.0936.3148.1327.4373.2335.1202.0982 1.0334.3068 1.1828.3284 2.5121.3638 4.5454-.3652 4.991-.6095.151-.0827 1.1907-.7631 1.3066-.903.5743-.6909 1.0451-1.5168 1.2898-2.3814.2477-.8748.4381-1.7901.2568-2.6974-.0906-.4525-.1698-.864-.3731-1.2831-.0869-.1788-.2209-.365-.2804-.5543-.0505-.1607.3317-.4046.421-.5243.5806-.7819.995-1.7404 1.4403-2.6043.201-.3907.4101-.7699.526-1.1962.0677-.2467.2759-.8092.1215-1.0578z"/>
    <path id="path11" fill="#e18742" d="M26.0722 267.405c.1052-.8003-1.4401-.2036-1.7434-.1343 0-.7342-.01-1.4402-.0897-2.0787-.0836-.6738-.1462-1.2914-.2679-1.8999-.1191-.5949-.2439-1.2257-.4917-1.7211-.2546-.5087-.4509-1.0269-.872-1.3636-.164-.1312-.3922-.2627-.6259-.313-.413-.0887-.7888.0385-1.0951.1565-.2222.0855-.4109.1765-.5814.3129-.1506.1204-.3178.2954-.4918.3801.0793-.3106.0931-.6311.134-.9613.0371-.2965.1199-.6211.1566-.9163.0797-.641.1915-1.2472.3131-1.8554.1183-.5904.3113-1.1768.4247-1.7436.1228-.6151.3507-1.128.4694-1.721.0314-.158.0551-.3338.0448-.492-.0156-.2345-.227-.3411-.5365-.2457-.0992.0303-.2378.1616-.3355.2236-.1026.0652-.2155.1682-.313.2457-.4119.3297-.8807.6122-1.2517.9835-.74.7409-1.5787 1.4143-2.2351 2.2355-.3248.406-.6766.7815-.9611 1.2293-.1529.24-.3122.3754-.3799.7153-.0572.2859-.1616.7485.1788.827.335.0772.5561-.2646.8494-.3129-.1574.6167-.141 1.2629-.2684 1.8999-.1233.6167-.2049 1.2308-.246 1.9224-.0379.6435-.1627 1.3384-.2009 1.9892-.0407.685-.0897 1.3497-.0897 2.079 0 .7289.0513 1.4294.0897 2.0786.04.687.0739 1.3535.2009 1.9897.0579.2892.1188.6149.1788.916.0495.247.2616.6772.0893.8496-.0904.0903-.1907.1884-.2902.2683-.0629.0502-.2317.2459-.3133.2459-.1084 0-.2482.1803-.3351.2234-.0996.0498-.3325.1792-.4248.1792-.1991 0-.3641.1787-.5705.1787-.3493 0-.6636.0902-1.0835.0673-.5093-.0283-1.0741-.1235-1.4529-.3133-.5113-.2558-1.0007-.4972-1.2964-.9611-.3036-.4762-.4458-.9783-.626-1.6094-.1598-.5583-.1934-1.3359-.1118-1.9897.0761-.6108.2497-1.2073.4472-1.7209.2034-.5294.4024-1.0634.6928-1.5197.5821-.9146 1.1978-1.7576 1.9447-2.5037.3756-.3756.7436-.7382 1.1623-1.073.1463-.1169.4889-.4246.7042-.4246.3156 0 .3333-.4752.3688-.76.1606-1.2886.3092-2.5722.5589-3.8225.1175-.5887.2159-1.2381.3354-1.8328.0655-.327.115-.6095.1561-.9388.0161-.1276.0227-.3285.0227-.4918 0-.2278-.0049-.3266-.1567-.4023-.4078-.2042-.8401.2682-1.1849.2682-.1324 0-.3389.1286-.4691.1788-.1279.0493-.2616.142-.3799.2013-.5062.2527-.983.5134-1.4755.7599-.9712.4865-1.8004 1.2036-2.6152 1.8553-.4109.3285-.7697.7247-1.1401 1.0953-.3711.3713-.7433.7499-1.0727 1.1623-.6676.8344-1.2217 1.7343-1.8106 2.66-.1443.2272-.2363.5027-.3355.7599-.0835.2166-.229.5835-.1341.9166.0594.2082.3374.2462.5587.1343.1207-.0611.2112-.1644.3133-.2461.2003-.1603.444-.3101.6258-.4918.0904-.0905.2436-.285.3799-.313-.18.1875-.2826.4701-.4247.6931-.1413.2218-.2799.4707-.402.715-.2426.4841-.5137.9917-.671 1.5424-.157.5494-.3703 1.1149-.4919 1.721-.1171.5862-.2764 1.2377-.3129 1.8556-.0776 1.3181-.1837 2.8175-.0221 4.1126.0827.6643.2436 1.2373.4469 1.7663.2164.5613.4664.9914.7602 1.4528.1436.2262.285.4413.469.6258.1863.1865.3954.3501.5815.5363.3577.3576.8265.7043 1.2964.9388.5874.2936 1.2537.6115 1.9894.7379.6105.1047 1.4258.1451 2.1013.0673.3187-.0368.6016-.0614.8938-.112.2041-.0351.4225-.1231.6263-.1789.634-.1734 1.2173-.4615 1.7209-.7822.4412-.2811.9103-.5974 1.2741-.9612.3704-.3701.7671-.73 1.0953-1.1402.1647-.2055.324-.4163.4918-.6258.1603-.2006.2875-.4663.4694-.6482.3638-.3639.6839-.8045 1.0061-1.2071.1573-.1971.3634-.3845.4022-.6929.0473-.3773-.0357-.7172-.1119-.9838-.165-.578-.2535-1.2045-.3351-1.855-.0801-.6374-.1613-1.3007-.2015-1.9893-.018-.311-.0221-.7037-.0221-1.0507 0-.3708.0517-.6733.1339-.9612.0813-.2834.1747-.5767.3578-.7599.1114-.111.1946-.2052.2907-.0447.0677.113.1195.2395.1787.3577.2494.4978.2529 1.1723.3351 1.833.0816.6527.0946 1.4044.1345 2.0789.0214.3655.0241.7047.0443 1.0501.0207.3495-.0229.712.0448 1.0508.0265.1311.1483.2903.2943.2903.2845 0 .3317-.0887.466-.2233.1861-.1865.3948-.3504.581-.5365.7456-.7444 1.6015-1.3786 2.3471-2.1237.2275-.2268.4879-.4206.7153-.6481.1169-.117.2428-.1899.3351-.335.0583-.0913.1549-.4417.0672-.5812z" class="fil2"/>
    <path id="path13" fill="#e18742" d="M63.2224 254.418c-.0396-.1945-.4357-.4303-.6035-.5142-.1153-.0573-.2423-.1434-.3576-.2009-.11-.055-.3244-.1788-.4469-.1788-.0762 0-.1606-.0895-.2348-.0895-.0831 0-.2535-.0537-.3464-.0895-.1882-.0723-.4082-.1202-.6259-.1789-.2279-.0612-.5103-.1339-.813-.1339-.466 0-.8847-.0225-1.3664-.0225-.3783 0-.6512.1116-.9723.1116-.1974 0-.29.178-.3576.3132-.108.2162-.3744.7833.134.76-.1524.1682-.5255.2814-.7156.4022-.2401.153-.4591.278-.6705.4471-.2095.1676-.4256.3619-.619.576-.1215-.2599-.264-.5009-.4315-.7099-.1707-.2138-.3011-.4352-.4916-.6261-.0893-.0893-.179-.1788-.2683-.2683-.0535-.0535-.2098-.2681-.2906-.2681-.1123 0-.2233-.2234-.3356-.2234-.087 0-.2765-.1608-.3576-.2013-.33-.1654-.7627-.3105-1.1844-.3575-.6768-.0757-1.3769-.0261-1.967.0891-.3822.0748-.7467.2547-1.0731.3802-.2873.1104-.5579.2227-.8272.3577-.1182.0592-.2286.1556-.3349.2233-.0732.0466-.2837.2013-.3577.2013-.0725 0-.2541.1987-.3129.2459-.0985.0787-.2009.1787-.2906.2683-.0847.0846-.2048.1903-.2686.2905-.0742.1169-.1014.2615-.0893.4694.0086.1404.0844.3666.067.4694-.0191.1151-.1879.2225-.2456.3128-.1494.2346-.2723.4579-.38.7378-.0761.1979-.1763.3361-.1566.6706.0069.1151.0112.2402.0446.3576.052.1811.1456.1706.3579.2011-.1559.5447-.3355 1.1367-.3355 1.8554 0 .7426.0598 1.4179.1789 2.0115.026.129.0605.2583.0995.386-.1684.006-.3385.0122-.5017-.006-.2815-.0309-.6335-.2608-.7825-.447-.178-.2224-.2653-.4363-.3576-.7601-.161-.5625-.0992-1.3726-.022-1.9892.0818-.6585.1386-1.2748.2679-1.9225.1221-.6109.2864-1.1853.4027-1.7659.063-.3173.1441-.5956.2232-.8715.0624-.2181.1717-.228.3796-.2908.0884-.0264.1718-.0605.2463-.0893.064-.0248.2012-.0895.2457-.0895.2095 0 .5713-.3093.7151-.4247.2082-.1663.4216-.3282.6262-.4917.422-.3376.6906-.7622 1.0285-1.1846.195-.2445.325-.5834.4689-.8719.0762-.1523.1497-.2881.2017-.4693.0302-.1061.1382-.4503.0669-.559-.0965-.469-1.1831.067-1.5135.067-.2449 0-.5867.1307-.8337.2013-.2345.067-.4827.1706-.7376.2237.2181-.5442.3317-1.1839.4917-1.7436.1635-.5717.3109-1.143.4695-1.6988.1041-.3652.152-.8375-.4245-.6705-.2552.0736-.5035.2674-.7156.4022-.2285.1454-.4807.285-.7152.4024-.1232.0616-.243.1282-.3579.2011-.0716.0455-.2532.2236-.335.2236-.0991 0-.2581.1743-.3356.2236-.1172.0745-.2256.154-.3349.2234-.1166.0739-.2233.1522-.3356.2236-.0706.0448-.2621.2235-.335.2235-.0735 0-.2643.1783-.3356.2234-.1066.0682-.2055.1777-.3129.246-.2309.1469-.4387.2996-.6706.4471-.1132.0718-.3795.3801-.5142.3801-.0416 0-.24.1439-.2682.1787-.0825.1038-.0904.1818-.134.3353-.0611.2146-.1471.5583.0223.6931.1333.1062.4837.0221.6555.0221h1.1552c-.1307.2236-.2204.5814-.2906.8273-.0825.2887-.1843.5557-.2683.8494-.1577.5524-.3517 1.1305-.5143 1.6986-.3326 1.1642-.5983 2.368-.7598 3.6659-.0387.3079-.1156.673-.1339.9835-.0116.1954-.0116.3263-.0227.514-.005.09-.0007.159-.022.2237-.0089.0276.0193.1142 0 .1342-.0365.0372-.1934.002-.246.0223-.1756.0664-.3035.537-.4026.693-.1524.2398-.2754.453-.4915.6257-.2047.1635-.4217.3254-.6483.4696-.2588.1645-.6383.339-1.0058.3574-.3592.0179-.6846-.0204-.9388-.0893-.1346-.0365-.3297-.1788-.4472-.1788-.2316 0-.5133-.3568-.6479-.4917-.1711-.1711-.4476-.537-.4922-.8047.1516.0755.332.1269.5145.1788.0802.023.2299.0893.3126.0893.1671 0 .4515.0225.6577.0225.5205 0 .9546-.136 1.3093-.3131.5345-.267.9664-.4978 1.3191-.9387.1651-.2063.3458-.3963.4915-.6259.1498-.2354.2279-.48.3356-.76.0979-.256.2079-.5376.2906-.8271.0769-.2693.1157-.6266.1341-.9387.0387-.6569.0275-1.4936-.0897-2.079-.1196-.5987-.3189-1.1624-.6036-1.6094-.2738-.4306-.6919-.8379-1.1621-1.0729-.3015-.1506-.6335-.3576-1.0757-.3576-.1472 0-.2651-.0354-.4444-.0447-.1648-.008-.3711 0-.5565 0-.2673 0-.5724.0849-.8295.1342-.1987.0381-.4433.131-.6255.2011-.1186.0457-.3383.1787-.447.1787-.0916 0-.289.1331-.3802.179-.0884.0439-.2569.2011-.3578.2011-.125 0-.2164.2234-.3352.2234-.1079 0-.2134.2459-.3129.2459-.1516 0-.4552.4555-.5587.559-.1339.1341-.2236.3131-.3577.447-.1148.1149-.3217.2662-.3577.4469-.0509.2538-.0114.5192.0449.7154.1083.3801.2989.1288.5361.0895-.247.4973-.478.9823-.6031 1.6094-.1131.5654-.2727 1.1706-.3133 1.8552-.0398.6769-.0632 1.3755-.0223 2.079.0126.2124.0796.331-.0892.4692-.1416.1159-.1414.1477-.2014.3575-.0873.3053-.1218.6012-.2458.8495-.265.5308-.6121.8097-1.0953 1.1173-.2761.1764-.786.3356-1.1864.3356-.3929 0-.6625-.006-.9372-.1117-.1129-.0433-.2547-.1356-.3576-.2013-.2931-.1861-.6374-.5465-.7599-.894.1234.005.2159.0395.3579.0672.1289.0253.3595.0446.5567.0446.2497 0 .5285-.0734.7395-.1341.3305-.0945.6349-.2372.8941-.4022.4555-.2901.7832-.6852 1.0726-1.1402.2679-.4201.5176-.9994.6263-1.5423.1192-.5955.1735-1.3385.0893-2.0118-.0414-.331-.0767-.672-.1341-.9612-.0636-.318-.1414-.5958-.2682-.8495-.1222-.2436-.2388-.4885-.4024-.6926-.0816-.1018-.1661-.2089-.2681-.2907-.0598-.0478-.2381-.246-.3132-.246-.0613 0-.2772-.1611-.3577-.2011-.169-.0847-.3558-.1788-.5978-.1788-.2845 0-.7625-.0223-1.0826-.0223-.2119 0-.4726.1151-.6441.1788-.5975.2225-1.028.4913-1.4752.8495-.4174.334-.6767.7882-1.0505 1.1623-.1903.1901-.3199.3906-.4696.6259-.0796.1251-.155.1888-.1788.3799-.0229.1828.0138.3591.0448.5141.0103.0523.0161.1565.0445.2013.0398.0625.1187.0791.1343.1564.0112.0561-.1504.3063-.1788.3799-.1015.2633-.2095.5553-.2684.8494-.1184.5912-.1747 1.2953-.134 1.9894.0397.6785.1731 1.2923.2906 1.8776.1161.5792.3849 1.1276.6258 1.6096.252.5044.6066.8804.9389 1.2965.1548.1937.3923.3795.6036.5138.1188.0759.2267.1363.3574.2014.1014.0506.2975.2009.4246.2009.1242 0 .3952.1278.5366.179.1945.0709.4966.1435.7376.1566.61.0329 1.0526-.1057 1.4754-.2686.5486-.2105.9829-.5576 1.3635-.9385.3742-.3747.641-.7458.8941-1.2518.1184-.237.19-.5086.2681-.7822.0785-.2745.1276-.6114.1341-.9389.1838.1654.2225.5249.3577.7376.1302.2043.2975.4762.4695.6483.1843.1842.355.3956.5588.5589.1324.106.4682.4693.6483.4693.0717 0 .2962.1579.3799.2012.1485.0765.2579.1245.4473.1787.2217.0637.4282.1562.732.1562.1188 0 .3263.045.5076.045.2151 0 .3718-.0223.5993-.0223.1454 0 .4906-.0966.6419-.1566.1574-.0624.3626-.1429.5143-.201.2939-.113.5576-.2226.8045-.38.4256-.2708.8699-.6715 1.1401-1.0957.1445-.2266.2581-.4709.38-.7149.0565-.1126.1103-.2597.1567-.38.0502-.1311.0429-.3335.1339-.4248.0066-.007-.0007-.0568 0-.067h.045c.0122.2926.1717.5993.2679.8491.0999.2599.2604.4926.4026.7156.1277.201.3504.4325.5365.5812.1071.0857.1912.1685.313.246.0778.0496.2355.2236.3349.2236.0917 0 .2883.1326.3799.1783.1482.0742.3883.1793.5813.1793.1419 0 .2502.0443.4381.0443.1934 0 .416-.0443.5454-.0443.2135 0 .4403-.1143.6035-.1793.5708-.2259 1.0137-.4988 1.4081-.8938.0877-.0877.1629-.1806.2334-.2768.159.175.36.3113.5268.4777.1717.1718.4722.337.6929.447.3332.1671.8633.2919 1.274.3356.3806.0407.8078 0 1.1723 0 .2342 0 .5166-.1564.7166-.1564.1845 0 .3855-.1792.5477-.1792.127 0 .3454-.1485.4472-.201.2279-.1176.4371-.2476.6342-.3875.264.3251.5349.6391.8632.9018.0585.0469.2177.2682.2907.2682.0968 0 .2032.246.3129.246.0722 0 .2729.1589.3576.2012.115.0572.3066.201.4584.201.1445 0 .3904.1337.5478.1789.1959.0559.4954.1564.722.1564.3681 0 .8534-.0447 1.1457-.0447.2512 0 .5129-.0811.7248-.1567 1.1765-.4176 1.8838-1.1282 2.4141-2.1901.2382-.4762.4394-1.0771.5146-1.6767.0384-.3102.0384-.6747 0-.9835-.0378-.3004-.1303-.6176-.2459-.8496-.247-.4941-.5454-.9478-.9165-1.3187-.3731-.3724-.8124-.6778-1.1848-1.0507-.172-.1722-.3987-.3838-.4919-.6256-.068-.177-.0059-.2456.134-.3131.2525-.1211.7174-.0223 1.0326-.0223.3922 0 .7635.1698 1.0239.3354.1137.0722.1859.182.313.2459.1839.0923.3941.0102.4916-.112.1602-.1998.2659-.5093.3799-.7375.1241-.2481.2552-.4871.3802-.7375.2443-.4895.559-.953.7599-1.4754.0536-.1384.2493-.5681.1566-.7154zm-26.7786 1.4306c.2877-.1831.7587-.3187 1.0732-.067.2138.1711.3366.3704.3799.7154.0384.3101-.0643.6423-.179.8715-.0577.1156-.1352.2474-.2236.3356-.0535.0535-.2318.2458-.3129.2458-.0677 0-.1192.0893-.1967.0893-.1557 0-.3107-.0223-.4516-.0223-.1257 0-.3365-.1417-.4022-.2237-.1109-.1385-.1452-.7822-.3576-.7822-.0942 0-.2975.0573-.3355.0447.258-.5146.5336-.9064 1.006-1.2071zm-9.4553 2.8388c.0888-.2399.3049-.4539.4918-.6036.0968-.0775.2002-.1878.3132-.2457.1736-.089.4837-.1756.7151-.1118.569.1568.4756 1.1059.2458 1.5647-.142.2841-.7735.5897-1.0954.268-.1239-.1242-.19-.2733-.2457-.4692-.0644-.2254-.1158-.4213-.4248-.4024zm25.2814 1.9448c-.3054.4796-.6663.8001-1.2071 1.0505-.3983.1842-1.0568.115-1.4088-.0672-.2324-.1203-.371-.3848-.4915-.6257-.1117-.2236-.2247-.5303-.246-.8493-.0207-.3128.0808-.6745.1567-.9389.1572-.5507.4058-1.0095.7598-1.3635.1928-.1927.4082-.3201.6932-.4248.1274-.0469.286-.118.3349-.2458.0584-.1517-.019-.3098-.0443-.4471.3602-.0643.6719.1793.8939.2906.2262.1132.3415.2818.4915.4693.1422.1776.2631.3496.3356.6035.0375.1311.0591.2281.0893.3799.0164.0823.0227.3179.0673.4027 0 .3502-.0532.6773-.1343.9609-.0807.2833-.1451.5767-.2902.8049zm4.5411 2.7047c-.3074 0-.5602-.2954-.7638-.4248-.2499-.1591-.3813-.3364-.5813-.5366-.1192-.119-.2229-.2536-.3283-.3858.0814-.1946.1605-.3931.239-.5975.1005-.2612.1849-.5398.2545-.8286.4972.4767 1.0554.8902 1.4889 1.4322.3422.4272.6915 1.3411-.309 1.3411z" class="fil2"/>
    <path id="path15" fill="#eee817" d="M40.6687 261.168c.0269-.1921-.0834-.3335-.112-.5141-.0807 0-.1727.3619-.2186.451-.0936.1815-.2177.3372-.3596.4834-.1948.2015-.4062.3367-.602.5251-.5893.5678-1.4139.6808-2.1889.6251-.8018-.0579-1.5203-.5115-1.9236-1.2159-.1957-.3413-.3316-.7181-.4679-1.0864-.1484-.4002-.2413-.7751-.2749-1.2352.5172.645 1.0285 1.0818 1.8912 1.1226.8583.0407 1.7577-.2108 2.4204-.7659 1.4149-1.1853 1.7387-3.3049 1.369-5.0242-.1659-.7732-.6088-1.5665-1.2698-2.026-.6656-.4627-1.4406-.632-2.2455-.5414-.8278.0929-1.5456.3712-2.2835.7507-.3986.2054-.7352.5003-1.0523.8135-.2781.2744-.6687.5733-.841.9319.2922-.0484.5985-.3131.8796-.4173.3268-.121.6649-.3435 1.0203-.3875-.242.3141-.5627.548-.8001.8734-.276.3781-.528.7872-.7287 1.2105-.3853.8137-.5756 1.7727-.6713 2.6626-.1965 1.8233-.0495 3.9738 1.1212 5.4837 1.1673 1.5056 3.127 1.9072 4.8405 1.1555.813-.3569 1.475-.8862 1.9153-1.674.2069-.3693.3747-.7879.4782-1.1981.0607-.2423.2495-.7692.104-1.003zm-6.1475-2.5482c-.0607-.54.1254-1.2186.3147-1.7197.2018-.5346.482-1.09.9374-1.4544.6805-.5452 1.8284-.9151 2.2136.1442.1843.5063.2686 1.1178.0889 1.6366-.0686.199-.3893.9909-.6708.9909-.1511 0-.2981.2148-.4547.2527-.2513.0605-.5534.0607-.7928-.0463-.2091-.0936-.4259-.2843-.5079-.5036-.0257-.0691-.1111-.4515-.1892-.4628-.0759-.0112-.3369.4329-.398.5183-.0657.0925-.4078.6826-.5412.6441z" class="fil3"/>
    <path id="path17" fill="#eee817" d="M31.8391 261.615c.0364.3228-.1081.6745-.201.9165-.0989.2569-.288.4714-.4474.6706-.3346.4189-.87.7592-1.4526.9167-.4751.1284-1.1327.2177-1.6095.0444-.317-.1146-.569-.2141-.8046-.4019-.397-.3179-.6793-.8223-.9164-1.2968-.1187-.2374-.2382-.521-.3129-.7823-.0889-.3115-.0938-.6272-.1788-.9612.1853.1679.2454.5192.4021.7153.1259.1572.45.447.7088.447.0809 0 .1847.0895.2654.0895.2272 0 .4668-.0223.6617-.0223.252 0 .4624-.1206.6665-.1788.3113-.089.582-.2247.8044-.4024.4274-.342.7487-.7151 1.0062-1.2293.234-.4679.4538-1.0283.4917-1.6768.0418-.7064.0023-1.4341-.1563-1.9892-.1669-.5844-.4101-1.0137-.7823-1.3859-.198-.1979-.4021-.3123-.6705-.447-.444-.222-1.2474-.1564-1.7658-.0671-.6519.1119-1.1755.4573-1.6097.8047-.3183.2547-.5496.5976-.8046.9165-.2474.309-.5587.6482-.7377 1.0058.4286-.2808.879-.5078 1.3856-.7152-.3277.4121-.6943.7978-.9835 1.2518-.2937.462-.4591 1.026-.6257 1.6093-.0765.2679-.1371.5862-.1567.9165-.0207.3546-.0209.6901 0 1.0506.0368.6205.207 1.2798.4026 1.7881.2071.5381.4074 1.0632.7376 1.475.3434.4299.6663.7976 1.0953 1.1408.1034.082.2245.1527.3354.2229.0796.0513.2593.2013.3572.2013.1254 0 .3084.1665.4475.2013.2033.0506.4507.1563.6705.1563.1831 0 .4377-.0223.5821-.0223.19 0 .3189-.067.435-.067.1766 0 .3703-.1218.5251-.1786.2765-.1022.4867-.3018.7154-.4476.4596-.292.7585-.726 1.0505-1.1844.1469-.2309.2313-.4958.3133-.7823.0799-.28.1787-.5588.1787-.9164v-.6706c0-.1854.061-.5827-.0226-.7155zm-5.9232-1.1398c0-.3462.0299-.6859.0891-.9836.058-.2883.1256-.6083.246-.8494.2477-.4962.5038-.9662.9163-1.2964.2172-.1735.5737-.3801.9372-.3801.3397 0 .4564.0418.6277.1788.1206.0967.1722.1657.2458.313.2103.4203.2775 1.4117.0448 1.8776-.2084.4167-.5608.8271-1.1623.8271-.3906 0-.5648-.1433-.7154-.38-.0517-.0808-.1187-.1694-.1566-.2683-.0417-.1086-.0478-.2709-.1119-.3576-.1182.2383-.3059.4667-.469.6707-.0966.1205-.3895.6504-.4917.6482z" class="fil3"/>
    <path id="path19" fill="#eee817" d="M20.8642 253.211c-.0248.0246-.0245.0242 0 0z" class="fil3"/>
    <path id="path21" fill="#eee817" d="M5.4629 262.822c-.0242.0244-.0247.0248 0 0z" class="fil3"/>
    <path id="path23" fill="#eee817" d="M25.2227 267.494c-.0475.0427-.4053.0893-.4696.0893-.1205 0-.2541.0807-.3573.1116-.1969.0591-.3742.1258-.559.2017 0-.6886.0164-1.4642-.0222-2.1239-.0414-.7094-.1663-1.3057-.2459-1.9447-.0747-.6006-.2444-1.2158-.447-1.7433-.1949-.5074-.4496-1.0528-.805-1.4084-.0865-.0867-.1998-.1895-.3127-.2458-.2095-.1048-.4279-.0895-.7154-.0895-.3267 0-.6496.2389-.8716.3801-.2142.1365-.4481.314-.6258.4917-.1793.1791-.3306.4342-.5365.5813-.0219.0152-.0434.0479-.067.067.0814-.6497.167-1.312.2458-1.9447.0789-.6344.2141-1.2436.2905-1.8553.0747-.5955.1969-1.226.3578-1.7883.1689-.5909.2561-1.1987.4248-1.788.0574-.2018.0995-.4044.1561-.6036.0549-.1911.1897-.4302.179-.6483-.4619.232-.8771.6436-1.2743.9613-.4113.3293-.8137.6795-1.1844 1.0505-.7514.7513-1.4767 1.4875-2.1461 2.3247-.2244.2806-.5622.6069-.6929.9613.2169-.1083.4374-.2299.6483-.3353.1966-.0984.4329-.2781.6481-.3129-.1069.2672-.1232.6398-.1788.9165-.0644.3217-.1157.613-.1562.9384-.0805.6394-.184 1.2464-.2685 1.9226-.157 1.2532-.313 2.6481-.313 4.0234 0 .7174.0273 1.425.067 2.1012.0403.6817.0721 1.3864.2014 2.034.1199.6002.1728 1.2642.3352 1.8333.0655.2289.2363.6961.1566.8715-.0949.2085-.3986.3983-.5591.5589-.1776.178-.389.3779-.6031.5142-.1743.1103-.5024.4023-.738.4023-.2088 0-.3758.1786-.6035.1786-.1008 0-.2221.0893-.3068.0893-.2141 0-.3627.0227-.5608.0227-.3989 0-.7367-.007-1.0771-.067-.0932-.0171-.2234-.0897-.3352-.0897-.1124 0-.2179-.0893-.3017-.0893-.268 0-.6211-.2784-.8161-.4025-.2413-.1534-.4087-.3192-.6032-.514-.4013-.4013-.5545-.8594-.7824-1.4527-.1968-.5126-.2963-1.172-.3354-1.833-.0223-.3776.0034-.7421.0448-1.0731.0424-.3415.0999-.6564.1562-.9389.1207-.6035.293-1.1664.5366-1.654.2538-.5083.4672-.9923.7601-1.4527.5703-.8967 1.2546-1.7026 1.9895-2.4367.3819-.3817.7142-.7512 1.1847-1.0505.1082-.0689.217-.1484.3354-.2238.0796-.0507.338-.14.3799-.2232.0566-.1138.0509-.3402.0669-.4694.0202-.1623.0479-.3372.067-.4918.1556-1.2463.3409-2.5316.5815-3.7331.1451-.7268.2929-1.4935.402-2.2128-.2482.014-.4411.1104-.6258.1788-.1355.0504-.3539.1788-.4806.1788-.1202 0-.3156.1325-.4358.1788-.1164.0448-.2455.1454-.3577.2012-.4964.2481-1.0155.4676-1.4751.76-.45.2861-.9291.5645-1.3413.894-.2129.1701-.4356.3016-.626.4917-.1801.1804-.4056.3558-.6035.5144-.8111.6495-1.5407 1.4677-2.1906 2.2797-.6687.8359-1.2175 1.7431-1.721 2.7495-.075.1498-.2173.3394-.246.5142.2187-.1058.4351-.3458.6036-.5142.18-.18.4279-.3333.6258-.4917.1068-.0853.2182-.1491.3355-.2234.0719-.046.2201-.2459.3129-.2459.0719 0 .2639-.1781.3349-.2236.071-.0448.2256-.2459.313-.2459.1555 0 .3014-.3129.4696-.3129.1144 0 .3699-.2496.4694-.313.3268-.208.6843-.3865 1.0283-.5587-.0341.0867-.2184.2107-.2906.2682-.1046.0838-.2192.1518-.313.2459-.1865.1863-.35.3949-.5365.5812-.1872.1873-.347.3947-.5139.6035-.1564.1951-.36.3966-.4918.6036-.2872.4505-.5587.9067-.8493 1.3634-.29.4554-.5107.9762-.7602 1.475-.2417.4831-.4469 1.039-.6035 1.587-.1621.5681-.3023 1.1539-.4248 1.7661-.121.6058-.2236 1.2875-.2236 1.9669 0 .7198-.0188 1.4206.0225 2.1239.0356.6052.2088 1.2626.4022 1.7657.2018.5244.4289 1.0475.7154 1.4977.2918.4581.7206.7658 1.0953 1.1398.1906.1905.4128.3208.626.4916.1015.0814.2241.153.3351.2239.0716.0454.2831.2011.3578.2011.1106 0 .3001.1618.4024.2009.1417.0548.3297.1793.4803.1793.1646 0 .3852.13.5481.1783.1848.0555.5349.1566.711.1566.4236 0 .7783.045 1.235.045.3214 0 .5535-.0896.8951-.0896.1973 0 .4522-.1563.664-.1563.2463 0 .4283-.179.6522-.179.1575 0 .332-.1232.4696-.1786.0998-.0405.2955-.2016.4021-.2016.121 0 .2331-.2011.3576-.2011.1014 0 .2592-.175.3356-.2232.4683-.2982.8485-.6255 1.2293-1.0059.4109-.4108 1.7072-1.9797 2.1012-2.4364.1693-.1965.3297-.4237.4918-.6263.1393-.1737.4622-.3855.4247-.6478-.0441-.3061-.1609-.5921-.2015-.9166-.0766-.6107-.2103-1.2353-.2902-1.8776-.0816-.6534-.1377-1.325-.1788-2.0343-.0403-.6885.0245-1.4497.1788-1.9892.085-.2986.1665-.5524.3127-.7823.1268-.1996.3719-.5142.6823-.5142.6076 0 .7188.9359.8599 1.4308.1613.5644.2084 1.2823.246 1.9222.0644 1.0869.1118 2.1423.1118 3.3081.8238-.6624 1.5667-1.4186 2.3915-2.0786.134-.1074.2593-.2368.3803-.3576.0548-.0552.3375-.3356.4021-.3356.0644 0 .3474-.2805.4026-.3353.1049-.1047.3113-.2285.3799-.3576h-.3577zm-15.2446-7.8235c.0246.0244.0246.0244 0 0z" class="fil3"/>
    <path id="path25" fill="#eee817" d="M62.7529 254.641c-.1416-.3647-.6647-.456-.9848-.579-.5297-.2033-1.041-.4563-1.6081-.5385-.5181-.0752-1.0642-.0895-1.5873-.0871-.3188.002-1.0016-.0852-1.2738.1094.3589-.0164.6591.2453.9888.3428.2882.0853.6561.1617.8665.3947-1.5631 0-3.3898.7749-4.145 2.1812-.152-.4105-.3412-.8032-.5544-1.1527-.4988-.82-1.1562-1.4216-2.0595-1.7522-1.0304-.3775-2.3045-.1668-3.3114.1694-.9059.3026-1.8818.8341-2.4919 1.6051.3345-.0777.6399-.2371.9634-.3463.3083-.1039.6804-.1232 1.0035-.1232-.1839.2047-.4896.2584-.7148.4022-.2986.19-.5849.4045-.8499.639-.4183.3702-1.0445.9939-1.1398 1.5739.4922-.3369 1.0137-.9499 1.6318-1.0505-.5649.7053-1.0641 1.3787-1.3445 2.2515-.2807.8731-.285 1.8846-.1044 2.7774.0914.4491.2559.9018.4807 1.3261-.255.11-.5083.1811-.8024.1858-.6003.009-1.3109-.3527-1.6229-.8727-.3822-.637-.314-1.4506-.2725-2.1588.0496-.8537.1757-1.6817.3427-2.5196.1629-.8201.3288-1.6402.5367-2.4504.0741-.2904.1152-.6288.2225-.907.0897-.232.5284-.2403.7313-.3131 1.5329-.5507 2.4582-1.8212 3.1515-3.2204-.0594-.005-.1192-.005-.1787 0-.2101.1103-.4663.1096-.6944.1573-.2641.0553-.5084.1809-.7776.2154-.5517.0706-1.065.3175-1.6127.4322.2748-.6832.3852-1.4349.5901-2.1412.2062-.7103.3411-1.4884.617-2.1728-.24.0389-.4456.2173-.639.3513-.2496.1724-.5205.3179-.7917.4531-.5974.2984-1.1487.7197-1.6994 1.0957-.4186.2861-.8688.5663-1.2632.8754-.3156.2478-.8194.463-1.0607.7784h2.0562c-.7335 1.7255-1.3065 3.5296-1.7088 5.3614-.4019 1.8349-.6377 3.8234-.3497 5.6909.1268.8218.4424 1.6381.9638 2.2904.2256.2818.4814.5586.7582.7913.2413.2036.5224.2467.8059.3508.7644.2795 1.8037-.0874 2.4103-.5645.3309-.2607.5867-.5796.7874-.9467.5953.7385 1.4126 1.2787 2.3866 1.3499.2397.0175.484.005.7244.005.1806 0 .3464-.0673.5215-.0673.2163 0 .4068-.1044.615-.1445.1917-.0371.353-.043.5342-.1309.8394-.4089 1.4806-.9028 2.0714-1.6225.6042-.7369 1.038-1.6439 1.2941-2.5588.0802-.2888.1347-.5792.1827-.8729.3313.383.7328.7204 1.096 1.0287.6532.5549 1.7315 1.4873 1.4136 2.4591-.0761.2316-.3384.7244-.6254.7244-.1892 0-.336.0847-.5426.0485-.2048-.035-.4216-.2272-.6199-.2272-.1527 0-.3294-.2198-.4407-.3068-.2138-.167-.3941-.3386-.568-.5472-.1327-.1591-.2799-.3593-.4444-.4872-.1681-.1309-.4291.3611-.5139.4695-.3119.3999-.6525.7782-1.0508 1.0954.2687.4059.5507.8065.887 1.1598.6751.7096 1.6234 1.1966 2.605 1.2856 1.5341.1402 3.0272-.5668 3.8639-1.8652.6851-1.0626.6745-2.603-.0082-3.6642-.3297-.5121-.8767-.8997-1.3118-1.3182-.4408-.4238-1.0928-.9707-1.0236-1.6508.0585-.5761.5435-.8487 1.0758-.8628.3743-.01.7681-.009 1.1269.1135.3774.1283.6515.4328 1.0112.5657.0823-.4981.5142-1.0039.7374-1.4499.1396-.2782.2858-.5559.4447-.8235.0788-.1328.3779-.4443.2929-.6102zm-9.9021 4.9399c-.0348.2805-.0535.6457-.246.8717-.0693.4223-.4673.8148-.752 1.1081-.3513.3619-.7408.5967-1.2465.6701-.7716.1118-1.4901-.2392-1.8583-.9182-.4889-.9019-.2824-1.9808.028-2.8954.2386-.7019.8206-1.6926 1.6606-1.7645-.4354-.3588-1.3664-.2265-1.8777-.2011.1498-.1647.4193-.2649.6249-.3327.2535-.0834.574-.1572.8381-.1951.6839-.0982 1.4382.1061 1.9699.5456.5762.477.8632 1.1407.9115 1.8776.0269.4188-.0003.8182-.0525 1.2339z" class="fil3"/>
  </g>
</svg>