<svg id="_イヤー_1" xmlns="http://www.w3.org/2000/svg" viewBox="0 0 788.03 206.93"><defs><style>.cls-2{fill:#e60012}.cls-3{fill:#fff}.cls-4{fill:#231815}</style></defs><path fill="none" d="M0 0h788.03v206.93H0z"/><path class="cls-2" d="M28.64 108.09c0-39.23 31.8-71.03 71.03-71.03s71.03 31.8 71.03 71.03-31.8 71.03-71.03 71.03-71.02-31.8-71.03-71.03z"/><path class="cls-3" d="M138.86 66.52l-.42-1.3c-2.66-8.36-12.18-19.87-27.51-17.33-14.98 2.46-18.32 12.4-21 20.38-.94 2.81-1.83 5.47-3.14 7.44-3.85 5.84-8.19 9.65-17.19 15.12-6.58 4-11.1 9.52-13.54 12.48-.57.71-1.03 1.26-1.38 1.64l-.29.31-.42.03c-1.29.11-3.33-.1-5.08-.35l-2.54-.4-1.45.89-1.18 3.75 1.07.82-.16-.02-2.15 7.42c1.54.3 3.97.56 4.99.66l1.15.11-.18 1.15c-2.01 13.28.98 24.76 8.64 33.18 8.53 9.39 21.22 13.17 29.4 12.72 21.39-1.17 40.11-20.06 49.16-38.26 13.8-27.75 6.1-51.51 3.2-60.45z"/><path class="cls-4" d="M47.39 119.16c-5.3 34.92 23.86 48.01 39.17 47.16 22.06-1.21 40.98-20.56 50.08-38.87 14.75-29.66 5.22-55.05 2.85-62.57-2.63-8.23-12.39-20.79-28.74-18.07-21.01 3.46-20.08 21.06-24.87 28.3-3.66 5.55-7.66 9.2-16.85 14.79-8.28 5.02-13.37 12.4-15.15 14.31-2.52.21-8.27-.9-8.27-.9l-.84 2.55s4.77.77 7.21 1.08c-.8 1.38-1.35 2.83-1.35 2.83l-6.78-1.01-2.74 9.44c1.49.52 6.27.96 6.27.96z"/><path class="cls-3" d="M74.57 111.72c-1.33-1.05-2.74-2.47-2.23-3.9 1.41-3.83 9.9-7.11 11.96-10.86 2.56-3.47 2.57-8.84-8.04-8.17 2.24-1.27 7.93-6.24 10.07-10.4 4.43-1.44 13.67-7.24 17.39-11.75 3.18 18.78 9.78 27.61 19.46 36.02-1.46 3.73-3.64 15.44-2.34 24.05-2.64 1.39-9.19 4.6-21.52 4.43v2.59c3.79.36 14.41-.11 21.54-3.94l.59 2.87c-4.12 1.53-11.19 4.17-21.74 4.13.07 1.99 1.32 9.2 2.75 13.23 4.35-.65 13.62-2.76 20.04-6.96-.69 2.91-18.68 20.59-36.17 20.65-23.21.05-36.76-18.91-37.28-34.54-.64-19.5 14.25-32.58 21.84-37.42 4.57-.16 10.24-1.08 11.31 2.09 1.34 3.93-12.83 9.31-12.54 13.96.22 3.27 3.52 3.76 4.91 3.91z"/><path class="cls-3" d="M106.57 63.13l2.59-3.04c.79 18.96 6.98 28.66 16.22 36.91l-.99 2.97c-5.71-5.56-17.5-17.14-17.82-36.84zm21.07 35.51l-1 2.61c.51.72 1.51 1.28 2.39 1.87 0 0 .55-2.1 1.01-2.48 0 0-1.14-.69-2.4-1.99zm-1.99 5.82l2.5 1.5c-.76 2.85-2.71 10.37-2.06 18.2 0 0-1.78 1.41-2.75 1.56-.75-4.03.35-17.89 2.32-21.27z"/><path class="cls-2" d="M65.79 113.61c1.53 1.14 2.9 3.38 3.27 5.16 3.58.08 7.38.64 10.27 3.62-3.48-.08-6.16.31-7.34.55-1.18.24-3.34.97-5.09-.52-2.26-1.91 0-5.77-1.11-8.81z"/><path class="cls-4" d="M75.61 110.09c.73.87 1.56 1.73 1.88 2.52.33.79.93.97 1.61.44s-.38-2.58-3.48-2.96zm19.09-11.6c-1.47.65-2.31 2.17.08 2.38 2.4.21 6.64-.07 8.64 2.38 3.22 3.97 2.6 11.84 9.37 14.99.49-.31-1.35-1.84-1.99-3.01-.59-1.06 2.69.2 3.98-.04-1.91-.43-4.93-1.6-5.8-2.95-2.91-4.48-.25-8.07-2.87-11.76-2.62-3.69-7.56-3.02-11.41-1.99z"/><path class="cls-2" d="M758.27 63.39h-14.66c-1.91 0-3.45 1.51-3.45 3.37v49.06c0 15.15-6.1 22.72-18.3 22.72s-18.29-7.57-18.29-22.72V66.76c0-1.86-1.54-3.37-3.45-3.37h-14.66c-1.9 0-3.45 1.51-3.45 3.37v49.53c0 8.39.9 14.71 2.68 18.97 1.85 4.75 5.01 9.03 9.49 12.85 7.28 6.21 16.51 9.3 27.68 9.3s20.51-3.09 27.78-9.3c4.4-3.82 7.5-8.1 9.29-12.85 1.85-5.33 2.77-11.65 2.77-18.97V66.76c0-1.86-1.54-3.37-3.44-3.37zm-173.88 0h-14.67c-1.91 0-3.45 1.51-3.45 3.37v49.06c0 15.15-6.1 22.72-18.31 22.72s-18.31-7.57-18.31-22.72V92.7c0-16.19-13.4-29.31-29.93-29.31h-24.96v-1.98c0-7.31 6.06-13.24 13.53-13.24h3.83c1.9 0 3.45-1.51 3.45-3.38V30.65c0-1.87-1.55-3.38-3.45-3.38h-3.83c-19.26 0-34.86 15.29-34.86 34.14v1.98h-4.03c-1.9 0-3.45 1.51-3.45 3.37v11.95c0 1.86 1.55 3.38 3.45 3.38h4.03v72c0 1.86 1.55 3.38 3.44 3.38h14.44c1.91 0 3.45-1.51 3.45-3.38V82.1h18.69c8.08 0 14.63 6.42 14.63 14.33v19.87c0 8.39.89 14.71 2.68 18.97 1.85 4.75 5.02 9.03 9.5 12.85 7.28 6.21 16.52 9.3 27.7 9.3s20.52-3.09 27.8-9.3c4.41-3.82 7.51-8.1 9.3-12.85 1.85-5.33 2.78-11.65 2.78-18.97V66.77c0-1.86-1.54-3.37-3.45-3.37zm93.57 88.57l-39.2-49.92 34.42-32.83c2.22-2.12.69-5.81-2.4-5.81h-19.01c-.91 0-1.79.35-2.43.99L620.62 92.5V66.78c0-1.86-1.55-3.38-3.45-3.38h-14.66c-1.9 0-3.45 1.51-3.45 3.38v87.27c0 1.87 1.54 3.38 3.45 3.38h14.66c1.9 0 3.45-1.51 3.45-3.38v-41.22l32.62 43.23c.65.86 1.68 1.37 2.76 1.37h19.23c2.86 0 4.47-3.22 2.72-5.46zM342.83 63.37h-54.75c-3.18 0-5.76 2.58-5.76 5.77v6.43c0 3.19 2.58 5.77 5.76 5.77h17.16v70.37c0 3.18 2.58 5.76 5.76 5.76h8.73c3.18 0 5.76-2.58 5.76-5.76V81.34h17.34c3.18 0 5.76-2.58 5.76-5.77v-6.43c0-3.18-2.58-5.77-5.76-5.77zm-68 13.79c-9.29-9.07-20.58-13.6-33.9-13.6s-24.49 4.5-33.71 13.5c-9.23 9.01-13.84 19.93-13.84 32.76 0 13.63 4.52 24.95 13.56 33.96 9.04 9.12 20.25 13.69 33.62 13.69s24.89-4.48 34.17-13.41c9.22-9 13.83-20.17 13.83-33.5s-4.58-24.34-13.74-33.4zm-15.01 55.26c-4.83 5.44-11.27 8.15-19.33 8.15s-14.44-2.75-19.33-8.25c-4.77-5.43-7.15-12.82-7.15-22.15 0-8.69 2.44-15.79 7.33-21.29 4.89-5.5 11.27-8.25 19.15-8.25s14.44 2.75 19.33 8.25c1.38 1.55 2.53 3.27 3.52 5.11 2.46 4.63 3.72 10.17 3.72 16.66s-1.25 12.02-3.71 16.64c-.99 1.85-2.15 3.58-3.53 5.13zM433.2 63.37h-13.45a3.83 3.83 0 00-3.83 3.83v5.64c-5.83-5.65-15.17-9.4-24.08-9.4-13.25 0-24.49 4.5-33.71 13.5-9.23 9.01-13.83 19.93-13.83 32.76 0 13.63 4.52 24.95 13.56 33.96 9.04 9.12 20.25 13.69 33.62 13.69 10.07 0 19.64-4.01 24.45-10.09v6.94c0 1.82 1.5 3.29 3.36 3.29h14.4c1.85 0 3.36-1.47 3.36-3.29V67.21a3.83 3.83 0 00-3.83-3.83zm-14.68 47.82c-.06 4.68-.93 9.34-2.61 13.48-1.17 2.89-2.74 5.49-4.75 7.75-4.83 5.44-11.27 8.15-19.33 8.15s-14.44-2.75-19.33-8.25c-4.64-5.28-7-12.43-7.12-21.42 0-.28-.03-.55-.03-.83 0-1.04.04-2.06.12-3.06.53-7.27 2.93-13.32 7.21-18.14 4.89-5.5 11.27-8.25 19.15-8.25s14.44 2.75 19.33 8.25c2.01 2.26 3.57 4.86 4.75 7.75 1.81 4.46 2.68 9.52 2.61 14.56z"/></svg>